<svg version="1" xmlns="http://www.w3.org/2000/svg" width="3176" height="3176" viewBox="0 0 2382.000000 2382.000000"><path d="M792.8 570l-.3 371.3L607.3 756C505.4 654.1 421.9 571.1 421.9 571.6c-.1.5-.3 91.8-.4 202.9-.1 111.1-.3 202.5-.4 203.1-.1.8-52.7 1.2-198.3 1.2-109.1 0-200.8.1-203.8.1l-5.5.1L305 1270.5 596.5 1562l-105.9 105.9-105.8 105.8 201.8.1c111.1 0 202.9.1 204.2.1l2.2.1v408.2l198.6-198.6c194.3-194.2 198.7-198.6 200.7-196.9 1.1 1 90.5 90.4 198.8 198.7l196.9 196.8V1773.5l203.5.1c116.9.1 203.4-.3 203.3-.8-.2-.5-47.5-48.1-105.2-105.8l-104.9-104.9 291.1-291.1C2236 1110.8 2367 979.5 2367 979.1c0-.3-91.7-.6-203.7-.6h-203.8V774.7c0-112-.1-203.7-.2-203.7s-83.4 83.2-185.1 185c-101.8 101.7-185.3 185-185.6 185-.3 0-.6-167-.6-371.1V198.7l-197.5 197.5c-108.6 108.7-198.1 198.1-198.9 198.7-1.1.9-40.4-37.9-200-197.5L793 198.8l-.2 371.2zm371.4 406.2c0 182.7-.1 333.2-.1 334.3-.1 1.4-48.7-46.6-159.6-157.5L845 993.5v-669l159.7 159.7 159.6 159.6-.1 332.4zm212.3 177.1c-87.7 87.7-159.5 159-159.6 158.3 0-.6-.1-151.1-.1-334.5V643.8l159.3-159.4L1535.5 325l.3 334.4.2 334.4-159.5 159.5zm-575.6-129.8l326.3 326.5H829.8l-178.1-178.1-178.2-178.2V845.4c0-81.6.2-148.4.5-148.4s147.4 146.9 326.9 326.5zm1106.6-177.6V994l-178 178-178 178h-297.6l326.2-326.5c179.4-179.5 326.5-326.2 326.8-326 .3.1.6 67 .6 148.4zM608.7 1203.2c94.7 94.7 172.3 172.7 172.3 173.1 0 .5-33.2 34.1-73.9 74.8l-73.9 73.9-246.9-247-247-246.9 4.1-.3c2.3-.2 69.1-.2 148.5-.1l144.4.1 172.4 172.4zM2237.9 1031h4.4l-247.2 247.1-247.1 247.1-74.4-74.3-74.5-74.4 173-173 172.9-173 144.2.2c79.4.1 146.3.2 148.7.3zM1127 1402.6c0 .1-71.8 71.9-159.5 159.7L808 1721.7H659.5c-148 0-148.5 0-146.8-2 1-1.1 72.8-72.9 159.6-159.6l157.8-157.6h148.4c81.7 0 148.5.1 148.5.1zm580.7 156.6c86.2 86.1 158.1 157.9 159.6 159.6l2.8 2.9h-296.9l-159.6-159.6-159.6-159.6h296.9l156.8 156.7zm-543.4 29.9v148.1l-159.6 159.6L845 2056.5V1758.8l159.3-159.3c87.5-87.6 159.4-159.1 159.6-158.9.2.2.4 67 .4 148.5zm371.7 318.5v148.9l-159.7-159.8-159.8-159.7.2-130.7c.1-72 .2-138.8.2-148.7l.1-17.9 159.5 159.5 159.5 159.6v148.8z"/></svg>