<svg id="Layer_1" data-name="Layer 1" xmlns="http://www.w3.org/2000/svg" viewBox="0 0 588.67 495.79"><defs><style>.cls-1{fill:none;stroke:#231f20;stroke-miterlimit:10;stroke-width:13px;}</style></defs><title>logo</title><g id="logo"><polygon class="cls-1" points="201.45 15.69 294.33 108.57 294.33 294.33 201.45 201.45 201.45 15.69"/><polygon class="cls-1" points="387.22 15.69 294.33 108.57 294.33 294.33 387.22 201.45 387.22 15.69"/><polygon class="cls-1" points="480.1 108.57 294.33 294.33 387.22 294.33 480.1 201.45 480.1 108.57"/><path class="cls-1" d="M576.28,251.2H483.4l-92.88,92.88L437,390.52Z" transform="translate(-3.3 -49.74)"/><polygon class="cls-1" points="108.57 108.57 294.33 294.33 201.45 294.33 108.57 201.45 108.57 108.57"/><path class="cls-1" d="M19,251.2h92.89l92.88,92.88-46.44,46.44Z" transform="translate(-3.3 -49.74)"/><path class="cls-1" d="M65.44,390.52" transform="translate(-3.3 -49.74)"/><polygon class="cls-1" points="294.33 294.33 201.45 387.22 108.57 387.22 201.45 294.33 294.33 294.33"/><polygon class="cls-1" points="387.22 294.33 480.1 387.22 387.22 387.22 294.33 294.33 387.22 294.33"/><polygon class="cls-1" points="201.45 387.22 201.45 480.1 294.33 387.22 294.33 294.33 201.45 387.22"/><polygon class="cls-1" points="387.22 387.22 387.22 480.1 294.33 387.22 294.33 294.33 387.22 387.22"/></g></svg>